<svg width="50" xmlns="http://www.w3.org/2000/svg" height="41.257" id="screenshot-cf82313b-6269-80a4-8006-3ce857a0c313" viewBox="3747 1113.743 50 41.257" xmlns:xlink="http://www.w3.org/1999/xlink" fill="none" version="1.1"><g id="shape-cf82313b-6269-80a4-8006-3ce857a0c313"><g class="fills" id="fills-cf82313b-6269-80a4-8006-3ce857a0c313"><path d="M3761.706,1129.399L3772.000,1120.189L3761.706,1129.399ZL3772.000,1120.189L3772.000,1148.554L3772.000,1148.554L3761.706,1139.344L3761.706,1139.344C3761.277,1138.976,3760.787,1138.792,3760.235,1138.792L3752.147,1138.792L3752.147,1138.792C3751.718,1138.731,3751.473,1138.485,3751.412,1138.055L3751.412,1130.688L3751.412,1130.688C3751.473,1130.258,3751.718,1130.013,3752.147,1129.951L3760.235,1129.951L3760.235,1129.951C3760.787,1129.951,3761.277,1129.767,3761.706,1129.399ZL3761.706,1129.399ZZM3773.654,1113.743C3772.980,1113.743,3772.368,1113.989,3771.816,1114.480L3759.408,1125.531L3759.408,1125.531L3752.147,1125.531L3752.147,1125.531C3750.676,1125.592,3749.451,1126.083,3748.471,1127.004C3747.551,1127.986,3747.061,1129.214,3747.000,1130.688L3747.000,1138.055L3747.000,1138.055C3747.061,1139.529,3747.551,1140.757,3748.471,1141.739C3749.451,1142.660,3750.676,1143.151,3752.147,1143.212L3759.408,1143.212L3759.408,1143.212L3771.816,1154.355L3771.816,1154.355C3772.368,1154.785,3772.980,1155.000,3773.654,1155.000C3774.451,1155.000,3775.094,1154.724,3775.585,1154.171C3776.136,1153.680,3776.412,1153.035,3776.412,1152.237L3776.412,1116.506L3776.412,1116.506C3776.412,1115.708,3776.136,1115.063,3775.585,1114.572C3775.094,1114.019,3774.451,1113.743,3773.654,1113.743ZL3773.654,1113.743ZZM3790.474,1120.650C3789.371,1119.913,3788.330,1120.036,3787.349,1121.018C3786.614,1122.123,3786.737,1123.136,3787.717,1124.057C3790.842,1126.636,3792.466,1130.074,3792.588,1134.372C3792.466,1138.669,3790.842,1142.107,3787.717,1144.686C3786.737,1145.607,3786.614,1146.650,3787.349,1147.817C3788.330,1148.738,3789.371,1148.830,3790.474,1148.093C3792.496,1146.435,3794.089,1144.440,3795.254,1142.107C3796.418,1139.774,3797.000,1137.196,3797.000,1134.372C3797.000,1131.609,3796.418,1129.030,3795.254,1126.636C3794.089,1124.303,3792.496,1122.308,3790.474,1120.650ZL3790.474,1120.650ZZM3784.960,1127.557C3783.795,1126.759,3782.754,1126.851,3781.835,1127.833C3781.099,1128.938,3781.191,1129.982,3782.110,1130.964C3783.152,1131.824,3783.703,1132.959,3783.765,1134.372C3783.703,1135.784,3783.152,1136.919,3782.110,1137.779C3781.191,1138.761,3781.099,1139.805,3781.835,1140.910C3782.754,1141.892,3783.795,1142.015,3784.960,1141.278C3786.982,1139.559,3788.054,1137.257,3788.176,1134.372C3788.054,1131.486,3786.982,1129.214,3784.960,1127.557ZL3784.960,1127.557ZZ" style="fill: rgb(252, 163, 17); fill-opacity: 1;"/></g></g></svg>